<svg width="48" height="48" viewBox="0 0 48 48" fill="none" xmlns="http://www.w3.org/2000/svg">
<g clip-path="url(#clip0_358_3108)">
<path d="M12 38C12 40.2 13.8 42 16 42H32C34.2 42 36 40.2 36 38V18C36 15.8 34.2 14 32 14H16C13.8 14 12 15.8 12 18V38ZM36 8H31L29.58 6.58C29.22 6.22 28.7 6 28.18 6H19.82C19.3 6 18.78 6.22 18.42 6.58L17 8H12C10.9 8 10 8.9 10 10C10 11.1 10.9 12 12 12H36C37.1 12 38 11.1 38 10C38 8.9 37.1 8 36 8Z" fill="black"/>
</g>
<defs>
<clipPath id="clip0_358_3108">
<rect width="48" height="48" fill="white"/>
</clipPath>
</defs>
</svg>
