<svg width="24" height="24" viewBox="0 0 24 24" fill="none" xmlns="http://www.w3.org/2000/svg">
<path d="M13.7799 15.2999L19.7799 21.2999L21.8899 19.1399L15.8899 13.1399L13.7799 15.2999ZM17.4999 10.0999C17.1099 10.0999 16.6899 10.0499 16.3599 9.90989L4.96986 21.2499L2.85986 19.1399L10.2699 11.7399L8.49986 9.95989L7.77986 10.6599L6.32986 9.24989V12.1099L5.62986 12.8099L2.10986 9.24989L2.80986 8.54989H5.61986L4.21986 7.13989L7.77986 3.57989C8.94986 2.40989 10.8299 2.40989 11.9999 3.57989L9.88986 5.73989L11.2999 7.13989L10.5899 7.84989L12.3799 9.62989L14.1999 7.74989C14.0599 7.41989 13.9999 6.99989 13.9999 6.62989C13.9999 4.65989 15.5599 3.10989 17.4999 3.10989C18.0899 3.10989 18.6099 3.24989 19.0799 3.52989L16.4099 6.19989L17.9099 7.69989L20.5799 5.02989C20.8599 5.49989 20.9999 5.99989 20.9999 6.62989C20.9999 8.54989 19.4499 10.0999 17.4999 10.0999Z" fill="black"/>
</svg>
