
<svg width="30" height="30" viewBox="0 0 30 30" fill="none" xmlns="http://www.w3.org/2000/svg">
<g clip-path="url(#clip0_192_2709)">
<path d="M12.5002 23.7499V17.4999H17.5002V23.7499C17.5002 24.4374 18.0627 24.9999 18.7502 24.9999H22.5002C23.1877 24.9999 23.7502 24.4374 23.7502 23.7499V14.9999H25.8752C26.4502 14.9999 26.7252 14.2874 26.2877 13.9124L15.8377 4.4999C15.3627 4.0749 14.6377 4.0749 14.1627 4.4999L3.71274 13.9124C3.28774 14.2874 3.55024 14.9999 4.12524 14.9999H6.25024V23.7499C6.25024 24.4374 6.81275 24.9999 7.50025 24.9999H11.2502C11.9377 24.9999 12.5002 24.4374 12.5002 23.7499Z" fill="black"/>
</g>
<defs>
<clipPath id="clip0_192_2709">
<rect width="30" height="30" fill="white"/>
</clipPath>
</defs>
</svg>
