<svg width="48" height="48" viewBox="0 0 48 48" fill="none" xmlns="http://www.w3.org/2000/svg">
<g clip-path="url(#clip0_425_4079)">
<path d="M23.6 21.8C19.06 20.62 17.6 19.4 17.6 17.5C17.6 15.32 19.62 13.8 23 13.8C25.84 13.8 27.26 14.88 27.78 16.6C28.02 17.4 28.68 18 29.52 18H30.12C31.44 18 32.38 16.7 31.92 15.46C31.08 13.1 29.12 11.14 26 10.38V9C26 7.34 24.66 6 23 6C21.34 6 20 7.34 20 9V10.32C16.12 11.16 13 13.68 13 17.54C13 22.16 16.82 24.46 22.4 25.8C27.4 27 28.4 28.76 28.4 30.62C28.4 32 27.42 34.2 23 34.2C19.7 34.2 18 33.02 17.34 31.34C17.04 30.56 16.36 30 15.54 30H14.98C13.64 30 12.7 31.36 13.2 32.6C14.34 35.38 17 37.02 20 37.66V39C20 40.66 21.34 42 23 42C24.66 42 26 40.66 26 39V37.7C29.9 36.96 33 34.7 33 30.6C33 24.92 28.14 22.98 23.6 21.8Z" fill="black"/>
</g>
<defs>
<clipPath id="clip0_425_4079">
<rect width="48" height="48" fill="white"/>
</clipPath>
</defs>
</svg>
