<svg width="24" height="24" viewBox="0 0 24 24" fill="none" xmlns="http://www.w3.org/2000/svg">
<path d="M12 15.1018C11.7521 15.1018 11.5444 15.0178 11.377 14.8498C11.209 14.6823 11.125 14.4747 11.125 14.2268V5.32363L10.3375 6.11113C10.1771 6.27155 9.97671 6.35176 9.73638 6.35176C9.49546 6.35176 9.2875 6.26426 9.1125 6.08926C8.95208 5.91426 8.87188 5.7063 8.87188 5.46538C8.87188 5.22505 8.95208 5.02467 9.1125 4.86426L11.3875 2.58926C11.4604 2.51634 11.5517 2.45801 11.6614 2.41426C11.7705 2.37051 11.8833 2.34863 12 2.34863C12.1167 2.34863 12.2298 2.37051 12.3395 2.41426C12.4486 2.45801 12.5396 2.51634 12.6125 2.58926L14.8875 4.86426C15.0625 5.03926 15.15 5.25072 15.15 5.49863C15.15 5.74655 15.0625 5.95072 14.8875 6.11113C14.7125 6.27155 14.5048 6.35176 14.2645 6.35176C14.0236 6.35176 13.8229 6.27155 13.6625 6.11113L12.875 5.32363V14.2268C12.875 14.4747 12.7913 14.6823 12.6239 14.8498C12.4559 15.0178 12.2479 15.1018 12 15.1018ZM6.75 21.2268C6.26875 21.2268 5.85692 21.0556 5.5145 20.7131C5.1715 20.3701 5 19.958 5 19.4768V9.85176C5 9.37051 5.1715 8.95838 5.5145 8.61538C5.85692 8.27297 6.26875 8.10176 6.75 8.10176H8.5C8.74792 8.10176 8.95588 8.18547 9.12388 8.35288C9.29129 8.52088 9.375 8.72884 9.375 8.97676C9.375 9.22467 9.29129 9.43234 9.12388 9.59976C8.95588 9.76776 8.74792 9.85176 8.5 9.85176H6.75V19.4768H17.25V9.85176H15.5C15.2521 9.85176 15.0444 9.76776 14.877 9.59976C14.709 9.43234 14.625 9.22467 14.625 8.97676C14.625 8.72884 14.709 8.52088 14.877 8.35288C15.0444 8.18547 15.2521 8.10176 15.5 8.10176H17.25C17.7313 8.10176 18.1434 8.27297 18.4864 8.61538C18.8288 8.95838 19 9.37051 19 9.85176V19.4768C19 19.958 18.8288 20.3701 18.4864 20.7131C18.1434 21.0556 17.7313 21.2268 17.25 21.2268H6.75Z" fill="black"/>
</svg>
