<svg width="48" height="48" viewBox="0 0 48 48" fill="none" xmlns="http://www.w3.org/2000/svg">
<g clip-path="url(#clip0_365_3132)">
<path d="M24 4C12.96 4 4 12.96 4 24C4 35.04 12.96 44 24 44C35.04 44 44 35.04 44 24C44 12.96 35.04 4 24 4ZM24 40C15.18 40 8 32.82 8 24C8 15.18 15.18 8 24 8C32.82 8 40 15.18 40 24C40 32.82 32.82 40 24 40ZM31.76 16.58L20 28.34L16.24 24.58C15.46 23.8 14.2 23.8 13.42 24.58C12.64 25.36 12.64 26.62 13.42 27.4L18.6 32.58C19.38 33.36 20.64 33.36 21.42 32.58L34.6 19.4C35.38 18.62 35.38 17.36 34.6 16.58C33.82 15.8 32.54 15.8 31.76 16.58Z" fill="black"/>
</g>
<defs>
<clipPath id="clip0_365_3132">
<rect width="48" height="48" fill="white"/>
</clipPath>
</defs>
</svg>
