<svg width="100" height="100" viewBox="0 0 100 100" fill="none" xmlns="http://www.w3.org/2000/svg">
<g clip-path="url(#clip0_94_30)">
<path d="M5.60815 22.973L50.6082 2.29736L65.2027 9.59466L36.0136 22.973L50.6082 30.8784L79.7973 16.2838L95 23.5811L50.6082 46.0811L5.60815 22.973Z" fill="#E60012" stroke="#E60012" stroke-linejoin="round"/>
<path d="M5 75.8784V27.8379L48.1757 50.3379V66.7568L18.9865 51.5541V67.973L48.1757 83.7838V99.5947L5 75.8784Z" fill="#4D6BB2" stroke="#4D6BB2" stroke-linejoin="round"/>
<path d="M52.4324 100.203V50.3377L67.027 43.6485V60.0674L80.4053 52.7701V35.7431L94.9999 28.4458V44.2566L80.4053 52.7701V68.5809L94.9999 60.6755V76.4863L80.4053 84.3917V68.5809L66.4189 76.4863V92.2972L52.4324 100.203Z" fill="#009944"/>
<path d="M80.4053 68.5809L66.4189 76.4863V92.2972L52.4324 100.203V50.3377L67.027 43.6485V60.0674L80.4053 52.7701M80.4053 68.5809V84.3917L94.9999 76.4863V60.6755L80.4053 68.5809ZM80.4053 68.5809V52.7701M80.4053 52.7701L94.9999 44.2566V28.4458L80.4053 35.7431V52.7701Z" stroke="#009944" stroke-linejoin="round"/>
</g>
<defs>
<clipPath id="clip0_94_30">
<rect width="100" height="100" fill="white"/>
</clipPath>
</defs>
</svg>
