<svg width="48" height="48" viewBox="0 0 48 48" fill="none" xmlns="http://www.w3.org/2000/svg">
<g clip-path="url(#clip0_360_3111)">
<path d="M36.6004 11.4199C35.8204 10.6399 34.5604 10.6399 33.7804 11.4199L24.0004 21.1799L14.2204 11.3999C13.4404 10.6199 12.1804 10.6199 11.4004 11.3999C10.6204 12.1799 10.6204 13.4399 11.4004 14.2199L21.1804 23.9999L11.4004 33.7799C10.6204 34.5599 10.6204 35.8199 11.4004 36.5999C12.1804 37.3799 13.4404 37.3799 14.2204 36.5999L24.0004 26.8199L33.7804 36.5999C34.5604 37.3799 35.8204 37.3799 36.6004 36.5999C37.3804 35.8199 37.3804 34.5599 36.6004 33.7799L26.8204 23.9999L36.6004 14.2199C37.3604 13.4599 37.3604 12.1799 36.6004 11.4199Z" fill="black"/>
</g>
<defs>
<clipPath id="clip0_360_3111">
<rect width="48" height="48" fill="white"/>
</clipPath>
</defs>
</svg>
